REM MD5 e54b01217c17f2a24de2438c02161c2b
FILE "DemoDemo PlayStation Vol. 11 (Japan).bin" BINARY
  TRACK 01 MODE2/2352
    INDEX 01 00:00:00
  TRACK 02 AUDIO
    INDEX 00 36:51:58
    INDEX 01 36:53:58
  TRACK 03 AUDIO
    INDEX 00 37:35:38
    INDEX 01 37:37:38
  TRACK 04 AUDIO
    INDEX 00 39:38:33
    INDEX 01 39:40:33
  TRACK 05 AUDIO
    INDEX 00 41:13:14
    INDEX 01 41:15:14
REM LEADOUT 41:38:73
